<?xml version="1.0" encoding="UTF-8" standalone="no"?><svg xmlns:inkscape="http://www.inkscape.org/namespaces/inkscape" xmlns:sodipodi="http://sodipodi.sourceforge.net/DTD/sodipodi-0.dtd" xmlns:xlink="http://www.w3.org/1999/xlink" xmlns="http://www.w3.org/2000/svg" xmlns:svg="http://www.w3.org/2000/svg" version="1.1" id="svg1" width="612.28265" height="400.62933" viewBox="0 0 612.28265 400.62933"><defs id="defs1"><clipPath clipPathUnits="userSpaceOnUse" id="clipPath2"><path d="M 0,300.472 H 459.212 V 0 H 0 Z" transform="translate(-121.6191,-106.2217)" id="path2"/></clipPath><clipPath clipPathUnits="userSpaceOnUse" id="clipPath4"><path d="M 0,300.472 H 459.212 V 0 H 0 Z" transform="translate(-133.08111,-266.12351)" id="path4"/></clipPath><clipPath clipPathUnits="userSpaceOnUse" id="clipPath6"><path d="M 0,300.472 H 459.212 V 0 H 0 Z" transform="translate(-111.93021,-263.01611)" id="path6"/></clipPath><clipPath clipPathUnits="userSpaceOnUse" id="clipPath8"><path d="M 0,300.472 H 459.212 V 0 H 0 Z" transform="translate(-87.570302,-252.46781)" id="path8"/></clipPath><clipPath clipPathUnits="userSpaceOnUse" id="clipPath10"><path d="M 0,300.472 H 459.212 V 0 H 0 Z" transform="translate(-67.943402,-232.75591)" id="path10"/></clipPath><clipPath clipPathUnits="userSpaceOnUse" id="clipPath12"><path d="M 0,300.472 H 459.212 V 0 H 0 Z" transform="translate(-59.286601,-211.68751)" id="path12"/></clipPath><clipPath clipPathUnits="userSpaceOnUse" id="clipPath14"><path d="M 0,300.472 H 459.212 V 0 H 0 Z" transform="translate(-68.433602,-196.3037)" id="path14"/></clipPath><clipPath clipPathUnits="userSpaceOnUse" id="clipPath16"><path d="M 0,300.472 H 459.212 V 0 H 0 Z" transform="translate(-60.272902,-177.5972)" id="path16"/></clipPath><clipPath clipPathUnits="userSpaceOnUse" id="clipPath18"><path d="M 0,300.472 H 459.212 V 0 H 0 Z" transform="translate(-51.832501,-163.561)" id="path18"/></clipPath><clipPath clipPathUnits="userSpaceOnUse" id="clipPath20"><path d="M 0,300.472 H 459.212 V 0 H 0 Z" transform="translate(-57.342301,-139.61521)" id="path20"/></clipPath><clipPath clipPathUnits="userSpaceOnUse" id="clipPath22"><path d="M 0,300.472 H 459.212 V 0 H 0 Z" transform="translate(-42.545901,-147.2041)" id="path22"/></clipPath><clipPath clipPathUnits="userSpaceOnUse" id="clipPath24"><path d="M 0,300.472 H 459.212 V 0 H 0 Z" transform="translate(-71.192402,-94.006805)" id="path24"/></clipPath><clipPath clipPathUnits="userSpaceOnUse" id="clipPath26"><path d="M 0,300.472 H 459.212 V 0 H 0 Z" transform="translate(-62.886701,-106.55371)" id="path26"/></clipPath><clipPath clipPathUnits="userSpaceOnUse" id="clipPath28"><path d="M 0,300.472 H 459.212 V 0 H 0 Z" transform="translate(-60.918902,-126.0361)" id="path28"/></clipPath><clipPath clipPathUnits="userSpaceOnUse" id="clipPath30"><path d="M 0,300.472 H 459.212 V 0 H 0 Z" transform="translate(-134.9229,-77.403304)" id="path30"/></clipPath><clipPath clipPathUnits="userSpaceOnUse" id="clipPath32"><path d="M 0,300.472 H 459.212 V 0 H 0 Z" transform="translate(-110.8789,-82.540002)" id="path32"/></clipPath><clipPath clipPathUnits="userSpaceOnUse" id="clipPath34"><path d="M 0,300.472 H 459.212 V 0 H 0 Z" transform="translate(-91.018105,-77.836902)" id="path34"/></clipPath><clipPath clipPathUnits="userSpaceOnUse" id="clipPath36"><path d="M 0,300.472 H 459.212 V 0 H 0 Z" transform="translate(-70.715802,-81.0488)" id="path36"/></clipPath><clipPath clipPathUnits="userSpaceOnUse" id="clipPath38"><path d="M 0,300.472 H 459.212 V 0 H 0 Z" transform="translate(-143.4478,-50.226604)" id="path38"/></clipPath></defs><g id="layer-MC0"><path id="path1" d="M 0,0 C 7.184,0 11.335,3.125 14.413,7.37 L 7.604,12.221 C 5.644,9.842 3.638,8.256 0.233,8.256 c -4.57,0 -7.788,3.825 -7.788,8.723 0,4.85 3.218,8.768 7.788,8.768 3.126,0 5.271,-1.538 7.137,-3.825 l 6.81,5.271 c -2.892,3.965 -7.183,6.764 -13.853,6.764 -9.888,0 -17.164,-7.463 -17.164,-16.978 C -16.837,7.137 -9.328,0 0,0 m 19.644,0.653 h 9.049 V 13.061 H 40.307 V 0.653 h 9.049 V 33.304 H 40.307 V 21.084 H 28.693 v 12.22 h -9.049 z m 34.184,0 h 9.468 l 2.332,5.878 h 12.641 l 2.332,-5.878 h 9.701 L 76.403,33.537 h -8.722 z m 14.459,12.92 3.685,9.236 3.638,-9.236 z M 94.792,0.653 h 8.863 v 18.704 l 8.302,-12.733 8.537,12.78 V 0.653 h 9.002 v 32.651 h -9.563 l -7.789,-12.64 -7.79,12.64 h -9.562 z m 41.801,0 h 26.494 V 8.35 h -17.538 v 5.177 h 15.672 v 7.137 h -15.672 v 4.99 h 17.305 v 7.65 h -26.261 z m 32.48,0 h 24.86 v 7.929 h -15.811 v 24.722 h -9.049 z m 30.094,0 h 26.495 V 8.35 h -17.538 v 5.177 h 15.671 v 7.137 h -15.671 v 4.99 h 17.304 v 7.65 H 199.167 Z M 247.879,0 c 10.076,0 17.631,7.604 17.631,16.979 0,9.468 -7.463,16.978 -17.537,16.978 -10.075,0 -17.632,-7.603 -17.632,-16.978 C 230.341,7.51 237.804,0 247.879,0 m 0.094,8.163 c -4.991,0 -8.395,4.105 -8.395,8.816 0,4.804 3.31,8.815 8.301,8.815 4.992,0 8.349,-4.058 8.349,-8.815 0,-4.805 -3.311,-8.816 -8.255,-8.816 m 23.511,-7.51 h 8.956 V 18.564 L 294.433,0.653 h 7.883 v 32.651 h -8.955 V 16.046 l -13.434,17.258 h -8.443 z m -287.249,42.18 h 8.862 v 18.703 l 8.302,-12.733 8.537,12.78 v -18.75 h 9.002 V 75.482 H 9.375 l -7.789,-12.64 -7.789,12.64 h -9.562 z m 42.077,0 h 9.048 v 32.65 h -9.048 z m 29.402,-0.56 c 7.93,0 13.2,3.964 13.2,10.634 0,6.204 -4.664,8.629 -12.127,10.262 -4.571,1.026 -5.69,1.679 -5.69,3.171 0,1.306 1.072,2.192 3.265,2.192 2.891,0 6.157,-1.072 9.141,-3.218 l 4.525,6.391 c -3.545,2.844 -7.882,4.337 -13.433,4.337 -7.836,0 -12.64,-4.384 -12.64,-10.447 0,-6.764 5.363,-8.723 12.314,-10.309 4.477,-1.073 5.55,-1.772 5.55,-3.171 0,-1.492 -1.306,-2.333 -3.778,-2.333 -3.778,0 -7.323,1.353 -10.588,3.918 l -5.037,-6.016 c 4.057,-3.593 9.515,-5.411 15.298,-5.411 m 24.614,0.56 h 9.048 v 24.72 h 9.045 v 7.929 H 71.33 v -7.929 h 8.998 z m 23.205,0 h 26.493 v 7.695 h -17.538 v 5.178 h 15.672 v 7.136 h -15.672 v 4.991 h 17.304 v 7.649 h -26.259 z m 32.444,0 h 9.049 v 9.888 h 4.011 l 6.577,-9.888 h 10.401 l -7.789,11.38 c 4.059,1.726 6.717,5.038 6.717,10.076 0,3.311 -0.981,5.783 -2.893,7.695 -2.191,2.192 -5.643,3.498 -10.634,3.498 h -15.439 z m 9.049,16.978 v 7.882 h 5.97 c 2.985,0 4.898,-1.305 4.898,-3.918 0,-2.472 -1.82,-3.964 -4.852,-3.964 z" style="fill:#1a171b;fill-opacity:1;fill-rule:evenodd;stroke:none" transform="matrix(1.3333333,0,0,-1.3333333,162.1588,259.0004)" clip-path="url(#clipPath2)"/><path id="path3" d="m 0,0 c 4.25,0 7.695,-3.446 7.695,-7.697 -0.001,-4.25 -3.446,-7.695 -7.696,-7.695 -4.25,0 -7.695,3.446 -7.694,7.696 C -7.695,-3.445 -4.25,0 0,0" style="fill:#e54415;fill-opacity:1;fill-rule:evenodd;stroke:none" transform="matrix(1.3333333,0,0,-1.3333333,177.44147,45.798)" clip-path="url(#clipPath4)"/><path id="path5" d="m 0,0 c 6.229,0 11.279,-5.051 11.279,-11.282 -10e-4,-6.23 -5.051,-11.281 -11.28,-11.28 -6.23,0 -11.28,5.052 -11.279,11.282 C -11.28,-5.05 -6.229,0 0,0" style="fill:#e1001a;fill-opacity:1;fill-rule:evenodd;stroke:none" transform="matrix(1.3333333,0,0,-1.3333333,149.24027,49.9412)" clip-path="url(#clipPath6)"/><path id="path7" d="m 0,0 c 7.042,0 12.751,-5.71 12.75,-12.753 0,-7.044 -5.709,-12.753 -12.751,-12.752 -7.043,0 -12.751,5.71 -12.751,12.753 C -12.751,-5.708 -7.042,0.001 0,0" style="fill:#cb005a;fill-opacity:1;fill-rule:evenodd;stroke:none" transform="matrix(1.3333333,0,0,-1.3333333,116.7604,64.0056)" clip-path="url(#clipPath8)"/><path id="path9" d="m 0,0 c 5.449,-0.001 9.865,-4.418 9.865,-9.868 0,-5.449 -4.418,-9.866 -9.866,-9.866 -5.449,0 -9.866,4.418 -9.865,9.867 C -9.866,-4.417 -5.449,0 0,0" style="fill:#a0057d;fill-opacity:1;fill-rule:evenodd;stroke:none" transform="matrix(1.3333333,0,0,-1.3333333,90.5912,90.288133)" clip-path="url(#clipPath10)"/><path id="path11" d="m 0,0 c 3.958,0 7.165,-3.209 7.165,-7.167 0,-3.958 -3.208,-7.166 -7.166,-7.166 -3.957,0 -7.165,3.209 -7.165,7.167 C -7.166,-3.208 -3.958,0 0,0" style="fill:#672180;fill-opacity:1;fill-rule:evenodd;stroke:none" transform="matrix(1.3333333,0,0,-1.3333333,79.0488,118.37933)" clip-path="url(#clipPath12)"/><path id="path13" d="m 0,0 c 4.789,0 8.67,-3.883 8.669,-8.672 0,-4.789 -3.882,-8.671 -8.67,-8.671 -4.789,0.001 -8.67,3.884 -8.67,8.673 C -8.67,-3.881 -4.789,0 0,0" style="fill:#00519c;fill-opacity:1;fill-rule:evenodd;stroke:none" transform="matrix(1.3333333,0,0,-1.3333333,91.2448,138.89107)" clip-path="url(#clipPath14)"/><path id="path15" d="m 0,0 c 3.572,0 6.467,-2.896 6.466,-6.468 0,-3.572 -2.895,-6.468 -6.467,-6.467 -3.571,0 -6.466,2.896 -6.466,6.468 C -6.467,-2.895 -3.571,0 0,0" style="fill:#006ab1;fill-opacity:1;fill-rule:evenodd;stroke:none" transform="matrix(1.3333333,0,0,-1.3333333,80.363867,163.83307)" clip-path="url(#clipPath16)"/><path id="path17" d="m 0,0 c 4.344,0 7.865,-3.522 7.865,-7.867 -0.001,-4.343 -3.522,-7.865 -7.866,-7.865 -4.344,0 -7.865,3.522 -7.864,7.866 C -7.865,-3.521 -4.344,0 0,0" style="fill:#008ed3;fill-opacity:1;fill-rule:evenodd;stroke:none" transform="matrix(1.3333333,0,0,-1.3333333,69.11,182.548)" clip-path="url(#clipPath18)"/><path id="path19" d="m 0,0 c 2.951,0 5.344,-2.394 5.344,-5.345 0,-2.952 -2.393,-5.345 -5.345,-5.344 -2.952,0 -5.344,2.393 -5.344,5.344 0,2.952 2.393,5.346 5.345,5.345" style="fill:#00979a;fill-opacity:1;fill-rule:evenodd;stroke:none" transform="matrix(1.3333333,0,0,-1.3333333,76.4564,214.47573)" clip-path="url(#clipPath20)"/><path id="path21" d="m 0,0 c 4.015,0 7.269,-3.256 7.268,-7.27 0,-4.015 -3.254,-7.269 -7.268,-7.269 -4.015,0 -7.269,3.255 -7.269,7.269 C -7.269,-3.254 -4.014,0 0,0" style="fill:#009ddf;fill-opacity:1;fill-rule:evenodd;stroke:none" transform="matrix(1.3333333,0,0,-1.3333333,56.727867,204.3572)" clip-path="url(#clipPath22)"/><path id="path23" d="m 0,0 c 2.699,0 4.887,-2.188 4.887,-4.889 0,-2.699 -2.188,-4.887 -4.887,-4.887 -2.7,0 -4.888,2.188 -4.888,4.888 C -4.888,-2.188 -2.699,0 0,0" style="fill:#40a52b;fill-opacity:1;fill-rule:evenodd;stroke:none" transform="matrix(1.3333333,0,0,-1.3333333,94.9232,275.28693)" clip-path="url(#clipPath24)"/><path id="path25" d="m 0,0 c 3.314,0 6,-2.688 6,-6.002 0,-3.313 -2.687,-6 -6.001,-6 -3.314,0 -6,2.688 -6,6.002 C -6,-2.686 -3.314,0 0,0" style="fill:#008f36;fill-opacity:1;fill-rule:evenodd;stroke:none" transform="matrix(1.3333333,0,0,-1.3333333,83.848933,258.55773)" clip-path="url(#clipPath26)"/><path id="path27" d="m 0,0 c 4.522,0 8.188,-3.666 8.188,-8.189 0,-4.524 -3.667,-8.19 -8.189,-8.19 -4.522,0 -8.188,3.667 -8.188,8.19 0,4.523 3.667,8.19 8.189,8.189" style="fill:#00947a;fill-opacity:1;fill-rule:evenodd;stroke:none" transform="matrix(1.3333333,0,0,-1.3333333,81.2252,232.5812)" clip-path="url(#clipPath28)"/><path id="path29" d="m 0,0 c 7.045,0 12.756,-5.713 12.756,-12.759 -10e-4,-7.046 -5.713,-12.759 -12.758,-12.758 -7.045,0.001 -12.756,5.713 -12.756,12.759 C -12.757,-5.711 -7.045,0.001 0,0" style="fill:#e4dd00;fill-opacity:1;fill-rule:evenodd;stroke:none" transform="matrix(1.3333333,0,0,-1.3333333,179.8972,297.42493)" clip-path="url(#clipPath30)"/><path id="path31" d="m 0,0 c 5.26,0 9.524,-4.265 9.524,-9.525 -10e-4,-5.262 -4.265,-9.526 -9.525,-9.526 -5.26,10e-4 -9.524,4.266 -9.523,9.527 0,5.26 4.264,9.525 9.524,9.524" style="fill:#d1d500;fill-opacity:1;fill-rule:evenodd;stroke:none" transform="matrix(1.3333333,0,0,-1.3333333,147.83853,290.576)" clip-path="url(#clipPath32)"/><path id="path33" d="m 0,0 c 4.042,-0.001 7.317,-3.277 7.317,-7.32 0,-4.041 -3.276,-7.319 -7.318,-7.318 -4.041,0 -7.317,3.277 -7.317,7.32 C -7.318,-3.277 -4.042,0 0,0" style="fill:#bdcc00;fill-opacity:1;fill-rule:evenodd;stroke:none" transform="matrix(1.3333333,0,0,-1.3333333,121.35747,296.8468)" clip-path="url(#clipPath34)"/><path id="path35" d="m 0,0 c 5.383,0 9.746,-4.364 9.746,-9.747 -0.001,-5.384 -4.365,-9.748 -9.747,-9.747 -5.383,0.001 -9.746,4.364 -9.746,9.748 C -9.746,-4.362 -5.382,0.001 0,0" style="fill:#90bc12;fill-opacity:1;fill-rule:evenodd;stroke:none" transform="matrix(1.3333333,0,0,-1.3333333,94.287733,292.56427)" clip-path="url(#clipPath36)"/><path id="path37" d="m 0,0 c 4.25,0 7.695,-3.446 7.695,-7.696 -0.001,-4.25 -3.446,-7.696 -7.696,-7.696 -4.249,0 -7.694,3.446 -7.694,7.697 0,4.251 3.445,7.696 7.695,7.695" style="fill:#ece000;fill-opacity:1;fill-rule:evenodd;stroke:none" transform="matrix(1.3333333,0,0,-1.3333333,191.26373,333.66053)" clip-path="url(#clipPath38)"/></g></svg>